<svg id="visual" viewBox="0 0 900 600" width="900" height="600" xmlns="http://www.w3.org/2000/svg" xmlns:xlink="http://www.w3.org/1999/xlink" version="1.1"><rect x="0" y="0" width="900" height="600" fill="#002233"></rect><path d="M0 401L16.7 407.5C33.3 414 66.7 427 100 429.7C133.3 432.3 166.7 424.7 200 431C233.3 437.3 266.7 457.7 300 467C333.3 476.3 366.7 474.7 400 471C433.3 467.3 466.7 461.7 500 466.3C533.3 471 566.7 486 600 478.3C633.3 470.7 666.7 440.3 700 437C733.3 433.7 766.7 457.3 800 457.7C833.3 458 866.7 435 883.3 423.5L900 412L900 601L883.3 601C866.7 601 833.3 601 800 601C766.7 601 733.3 601 700 601C666.7 601 633.3 601 600 601C566.7 601 533.3 601 500 601C466.7 601 433.3 601 400 601C366.7 601 333.3 601 300 601C266.7 601 233.3 601 200 601C166.7 601 133.3 601 100 601C66.7 601 33.3 601 16.7 601L0 601Z" fill="#0066FF" stroke-linecap="round" stroke-linejoin="miter"></path></svg>